<svg width="48" height="48" viewBox="0 0 48 48" fill="none" xmlns="http://www.w3.org/2000/svg">
<circle cx="24.4146" cy="24.4447" r="23.5201" fill="url(#paint0_linear_54_1415)"/>
<g clip-path="url(#clip0_54_1415)">
<path d="M33.4408 27.2408L28.5884 30.0672C28.3451 30.2087 28.0975 30.3089 27.8397 30.3686C27.9355 30.2152 28.0103 30.0414 28.062 29.8497C28.3101 28.9239 27.76 27.9572 26.8094 27.6488C26.7911 27.6428 26.7723 27.638 26.7529 27.6348C25.3582 27.3834 23.9814 26.8855 22.8758 26.4856C22.4914 26.3467 22.1287 26.2154 21.8202 26.1152C20.5779 25.7121 19.4546 26.2111 18.5201 26.7525L14.91 28.8426L14.5698 28.2414C14.4196 27.976 14.1742 27.7844 13.8787 27.7026C13.5837 27.6208 13.2747 27.6584 13.0088 27.8086L11.647 28.5794C11.3817 28.7296 11.19 28.975 11.1082 29.2706C11.0264 29.5661 11.0641 29.8745 11.2143 30.1404L15.2173 37.2132C15.3675 37.4786 15.613 37.6702 15.9085 37.752C16.0107 37.7805 16.1141 37.7945 16.2174 37.7945C16.4123 37.7945 16.6044 37.7445 16.7783 37.646L18.1401 36.8752C18.4055 36.725 18.5971 36.4795 18.6789 36.184C18.7607 35.8885 18.7231 35.5801 18.5729 35.3142L18.16 34.5848L18.983 34.1096L25.1984 35.775C25.5493 35.8691 25.8938 35.916 26.2313 35.916C26.9036 35.916 27.5463 35.7292 28.1508 35.3567L36.9573 29.9342C37.7599 29.4401 38.015 28.194 37.4918 27.321C37.2378 26.8968 36.1951 25.6378 33.443 27.2408H33.4408ZM17.8473 35.9537C17.8268 36.0274 17.7795 36.0882 17.7143 36.1248L16.3525 36.8956C16.2185 36.9715 16.0414 36.9225 15.9655 36.7885L11.963 29.7157C11.9258 29.6506 11.9172 29.5741 11.9371 29.5004C11.9576 29.4267 12.005 29.3658 12.0701 29.3292L13.4319 28.5584C13.4744 28.5342 13.5218 28.5224 13.5697 28.5224C13.5955 28.5224 13.6214 28.5261 13.6472 28.5331C13.721 28.5536 13.7818 28.601 13.8189 28.6661L17.822 35.7389C17.8591 35.804 17.8683 35.8805 17.8478 35.9542L17.8473 35.9537ZM36.5041 29.2011L27.6975 34.6236C26.9994 35.0537 26.2329 35.1608 25.4196 34.9428L19.032 33.2311C18.9217 33.2015 18.8043 33.2171 18.7053 33.2742L17.7343 33.835L15.3331 29.5919L18.9507 27.4975C19.7598 27.0287 20.6355 26.6363 21.5538 26.9345C21.8488 27.0303 22.1889 27.153 22.5824 27.2951C23.7112 27.7031 25.1133 28.2102 26.5688 28.4761C27.0759 28.6532 27.3595 29.143 27.2303 29.6263C27.0602 30.262 26.5306 30.3406 26.1097 30.2922C25.3949 30.1452 24.7156 29.9515 23.997 29.7464C23.6563 29.649 23.3037 29.5483 22.9414 29.4514C22.7121 29.39 22.4758 29.5262 22.4139 29.7561C22.352 29.9859 22.4888 30.2217 22.7186 30.2836C23.0739 30.3788 23.4232 30.4784 23.7601 30.5748C24.5008 30.7863 25.2005 30.986 25.9541 31.1399C25.9568 31.1405 25.96 31.141 25.9627 31.141C25.9654 31.141 25.9681 31.1421 25.9713 31.1426L26.5747 31.2406C27.4769 31.3849 28.2778 31.2444 29.0228 30.8105L33.8752 27.9841C35.272 27.1708 36.3475 27.0879 36.7517 27.7629C37.0305 28.2279 36.9057 28.9535 36.5046 29.2006L36.5041 29.2011ZM13.827 29.9245C13.8657 30.1899 13.6822 30.437 13.4163 30.4757C13.1504 30.5145 12.9039 30.3304 12.8651 30.065C12.8264 29.7997 13.0099 29.5526 13.2758 29.5138C13.5417 29.4751 13.7882 29.6586 13.827 29.9245ZM37.7636 14.0005V13.1807C37.7636 12.3276 37.0698 11.6338 36.2167 11.6338H29.1988C28.3456 11.6338 27.6518 12.3281 27.6518 13.1807V14.0005C27.6518 14.4392 27.8353 14.8354 28.1298 15.1169C27.8359 15.3989 27.6518 15.7951 27.6518 16.2332V17.053C27.6518 17.1144 27.6556 17.1757 27.6631 17.2366C25.4099 17.7458 23.7219 19.7637 23.7219 22.1687C23.7219 24.9564 25.9902 27.2246 28.7778 27.2246C30.6419 27.2246 32.2728 26.2111 33.1496 24.7061H36.2167C37.0698 24.7061 37.7636 24.0122 37.7636 23.1591V22.3393C37.7636 21.9006 37.5801 21.5045 37.2857 21.2229C37.5796 20.9409 37.7636 20.5447 37.7636 20.1066V19.2868C37.7636 18.8481 37.5801 18.452 37.2857 18.1704C37.5796 17.8884 37.7636 17.4922 37.7636 17.0541V16.2343C37.7636 15.7956 37.5801 15.3995 37.2857 15.1179C37.5796 14.8359 37.7636 14.4397 37.7636 14.0016V14.0005ZM28.7778 26.3639C26.4649 26.3639 24.5831 24.4821 24.5831 22.1692C24.5831 19.8563 26.4649 17.9745 28.7778 17.9745C31.0908 17.9745 32.9725 19.8563 32.9725 22.1692C32.9725 24.4821 31.0908 26.3639 28.7778 26.3639ZM36.9024 22.3393V23.1591C36.9024 23.5375 36.5945 23.8448 36.2167 23.8448H33.548C33.7331 23.32 33.8338 22.7559 33.8338 22.1687C33.8338 21.9948 33.8252 21.8226 33.8079 21.653H36.2167C36.5951 21.653 36.9024 21.9609 36.9024 22.3388V22.3393ZM36.9024 19.2863V20.106C36.9024 20.4845 36.5945 20.7918 36.2167 20.7918H33.6432C33.4053 19.9526 32.9559 19.2018 32.3562 18.6005H36.2161C36.5945 18.6005 36.9019 18.9084 36.9019 19.2863H36.9024ZM36.9024 16.2338V17.0535C36.9024 17.4319 36.5945 17.7393 36.2167 17.7393H31.2135C30.4906 17.3399 29.6601 17.1128 28.7778 17.1128C28.6901 17.1128 28.6035 17.1149 28.5168 17.1192C28.5146 17.0977 28.513 17.0756 28.513 17.0535V16.2338C28.513 15.8554 28.8209 15.548 29.1988 15.548H36.2167C36.5951 15.548 36.9024 15.8559 36.9024 16.2338ZM29.1988 14.6868C28.8204 14.6868 28.513 14.3789 28.513 14.001V13.1813C28.513 12.8029 28.8209 12.4955 29.1988 12.4955H36.2167C36.5951 12.4955 36.9024 12.8034 36.9024 13.1813V14.001C36.9024 14.3794 36.5945 14.6868 36.2167 14.6868H29.1988ZM30.6812 23.1995C30.7291 23.5945 30.6225 23.9557 30.3733 24.2442C30.1101 24.5484 29.6897 24.7599 29.2085 24.8385V25.0958C29.2085 25.3337 29.0158 25.5264 28.7778 25.5264C28.5399 25.5264 28.3472 25.3337 28.3472 25.0958V24.832C27.612 24.6921 27.0468 24.2022 26.8762 23.5176C26.8186 23.2867 26.9591 23.0531 27.19 22.9955C27.4209 22.9379 27.6545 23.0784 27.7121 23.3093C27.8456 23.8438 28.3968 24.0209 28.8284 24.0112C29.2058 24.002 29.5562 23.8723 29.722 23.6807C29.8119 23.5768 29.8452 23.4568 29.8264 23.3033C29.7952 23.045 29.6401 22.729 28.7127 22.5772C27.3611 22.3555 27.0452 21.6525 27.0183 21.1018C26.9811 20.3402 27.5092 19.7029 28.3322 19.5161C28.3375 19.515 28.3424 19.514 28.3472 19.5129V19.2416C28.3472 19.0037 28.5399 18.811 28.7778 18.811C29.0158 18.811 29.2085 19.0037 29.2085 19.2416V19.5086C29.7494 19.6205 30.2683 19.957 30.5364 20.5964C30.6284 20.8155 30.5256 21.0679 30.306 21.16C30.0869 21.252 29.8345 21.1492 29.7424 20.9296C29.5169 20.3929 28.9673 20.2546 28.5222 20.3553C28.1981 20.429 27.8585 20.6524 27.8779 21.0588C27.8849 21.1987 27.9026 21.5701 28.8516 21.7262C29.969 21.9098 30.5848 22.405 30.6812 23.1989V23.1995ZM19.7016 15.1863H20.5311V20.5119C20.5311 20.7498 20.7238 20.9425 20.9617 20.9425H22.7051C22.9431 20.9425 23.1358 20.7498 23.1358 20.5119V15.1863H23.9652C24.1235 15.1863 24.2693 15.0991 24.3442 14.9597C24.4195 14.8203 24.4114 14.6507 24.3242 14.5183L22.1927 11.2887C22.113 11.1682 21.9779 11.0955 21.8332 11.0955C21.6884 11.0955 21.5533 11.1682 21.4736 11.2887L19.3421 14.5183C19.2549 14.6507 19.2473 14.8203 19.3221 14.9597C19.3975 15.0991 19.5428 15.1863 19.7011 15.1863H19.7016ZM21.8332 12.3077L23.1648 14.3251H22.7051C22.4672 14.3251 22.2745 14.5178 22.2745 14.7557V20.0813H21.3923V14.7557C21.3923 14.5178 21.1996 14.3251 20.9617 14.3251H20.502L21.8337 12.3077H21.8332Z" fill="white"/>
</g>
<defs>
<linearGradient id="paint0_linear_54_1415" x1="0.894531" y1="24.4447" x2="47.9347" y2="24.4447" gradientUnits="userSpaceOnUse">
<stop stop-color="#4BAE4F"/>
<stop offset="1" stop-color="#06870B"/>
</linearGradient>
<clipPath id="clip0_54_1415">
<rect width="26.6985" height="26.6985" fill="white" transform="translate(11.0654 11.0955)"/>
</clipPath>
</defs>
</svg>
