<svg width="22" height="18" viewBox="0 0 22 18" fill="none" xmlns="http://www.w3.org/2000/svg">
<g clip-path="url(#clip0_54_1682)">
<path d="M16.7306 4.35618C15.9429 1.27521 12.753 -0.597489 9.60495 0.173091C7.50288 0.687711 5.8613 2.2932 5.3328 4.34988C2.09882 4.64722 -0.277611 7.45469 0.0261641 10.6207C0.309718 13.5802 2.84837 15.8416 5.88474 15.8407H8.09067C8.49693 15.8407 8.82598 15.5186 8.82598 15.1209C8.82598 14.7232 8.49693 14.4012 8.09067 14.4012H5.88474C3.44811 14.4079 1.46691 12.4803 1.46002 10.0953C1.45312 7.7102 3.42237 5.77093 5.85901 5.76418C6.24964 5.79297 6.59937 5.52712 6.66785 5.1497C7.01114 2.79207 9.24235 1.1533 11.6509 1.48978C13.5899 1.76059 15.1138 3.25181 15.39 5.1497C15.4695 5.51272 15.7999 5.77003 16.1791 5.76418C18.6157 5.76418 20.5909 7.69761 20.5909 10.0827C20.5909 12.4677 18.6157 14.4012 16.1791 14.4012H13.9731C13.5669 14.4012 13.2378 14.7232 13.2378 15.1209C13.2378 15.5186 13.5669 15.8407 13.9731 15.8407H16.1791C19.4278 15.8074 22.0335 13.2028 21.9995 10.0228C21.9683 7.09842 19.7021 4.66117 16.7306 4.35663V4.35618Z" fill="#D2D2D2"/>
<path d="M14.1889 10.5916C14.4812 10.8678 14.9467 10.8597 15.2284 10.574C15.5037 10.2951 15.5037 9.85291 15.2284 9.57401L11.5519 5.97527C11.2647 5.69412 10.7991 5.69412 10.5123 5.97527L6.8358 9.57401C6.55362 9.86011 6.56189 10.3158 6.85372 10.5916C7.13865 10.861 7.59041 10.861 7.87534 10.5916L10.2968 8.22133V17.2803C10.2968 17.6779 10.6259 18 11.0321 18C11.4384 18 11.7674 17.6779 11.7674 17.2803V8.22133L14.1889 10.5916Z" fill="#D2D2D2"/>
</g>
<defs>
<clipPath id="clip0_54_1682">
<rect width="22" height="18" fill="white"/>
</clipPath>
</defs>
</svg>
