<svg width="195" height="334" viewBox="0 0 195 334" fill="none" xmlns="http://www.w3.org/2000/svg">
<g clip-path="url(#clip0_54_1342)">
<path d="M50.5726 62.481C50.4605 62.8688 49.8933 63.6245 49.0723 64.5347H93.5941C90.7353 61.7647 88.7403 58.4066 88.1798 57.848C87.1246 56.7965 89.446 57.2171 89.8713 56.5862C90.2934 55.9553 87.7577 54.9005 86.0694 53.849C84.3778 52.7976 86.9135 53.849 86.4915 52.5873C86.0694 51.3255 82.4785 50.0604 82.6895 49.4295C82.9006 48.7986 86.0694 48.7986 83.9558 47.7439C81.8421 46.6924 78.0402 33.0067 81.42 37.0056C81.6113 37.2323 81.819 37.4492 82.0399 37.6628C85.71 41.1688 93.0402 42.4799 93.0402 42.4799C94.9428 41.2181 95.998 37.0056 92.6181 32.1622C89.2382 27.3188 90.5044 23.7405 90.5044 23.7405C91.0848 19.2158 91.1573 14.4086 89.6207 10.0515C88.1402 5.86202 85.0472 2.61229 80.8562 1.08107C79.3756 0.538896 77.8192 0.210308 76.253 0.0525857C72.2664 -0.345006 68.5106 1.45237 65.5165 3.94964C61.2859 7.47868 58.7964 12.7459 58.1995 18.1611C57.9028 20.8555 58.0479 23.6222 58.7205 26.2509C58.9645 27.2071 59.2778 28.1436 59.6141 29.0702C60.3627 31.1403 61.2266 33.1743 61.7212 35.3265C63.1292 41.4218 61.4211 48.0823 57.4148 52.8698C55.4627 55.2028 53.0786 57.8414 50.3616 59.3167C48.0369 60.5785 50.9947 61.0024 50.5726 62.4745V62.481Z" fill="#EF9E78"/>
<path d="M92.6181 32.1622C89.2383 27.3188 90.5045 23.7405 90.5045 23.7405C90.6133 22.9026 90.6759 22.0581 90.7584 21.2169C90.577 21.4634 90.2802 21.5915 89.9967 21.7033C87.2268 22.7942 84.3713 23.2016 81.4234 22.7186C80.5957 22.5839 80.0813 22.4492 79.3328 22.8993C78.7623 23.2411 78.2282 23.6452 77.7599 24.1184C76.9026 24.976 76.1046 26.1162 74.9208 26.5434C74.413 26.7274 73.7502 26.7865 73.3908 27.24C72.6522 28.1764 74.6603 30.3747 75.1714 31.0154C76.4311 32.5927 77.7467 33.9727 79.3691 35.1754C80.5495 36.0494 81.453 37.206 82.5742 38.1327C83.4447 38.8523 84.4174 39.4437 85.4297 39.953C87.2532 40.8698 89.202 41.5401 91.1739 42.0527C91.4344 42.1217 92.7929 42.6442 93.0435 42.4799C94.9461 41.2181 96.0013 37.0056 92.6214 32.1622H92.6181Z" fill="#EB6528"/>
<path d="M80.1604 34.574C78.8547 33.4141 74.3702 29.6649 74.2053 26.7898C73.8228 26.9475 73.4996 27.102 73.3908 27.24C72.6522 28.1764 74.6603 30.3747 75.1714 31.0154C76.4311 32.5927 77.7467 33.9727 79.3691 35.1754C80.5495 36.0494 81.453 37.206 82.5742 38.1327C83.4447 38.8523 84.4174 39.4437 85.4297 39.953C87.1906 40.8402 89.0734 41.4908 90.9793 41.9969C87.0356 39.9629 83.2666 37.3276 80.1637 34.5708L80.1604 34.574Z" fill="#D85926"/>
<path d="M72.6885 14.7668H70.7825L69.8362 16.3933L70.7924 18.0099H72.6984L73.6447 16.3834L72.6885 14.7668ZM72.5895 16.3341C72.5895 16.8007 72.2136 17.1786 71.7454 17.1786C71.2772 17.1786 70.898 16.804 70.898 16.3374C70.898 15.8708 71.2739 15.4929 71.7421 15.4929C72.2103 15.4929 72.5862 15.8675 72.5895 16.3341Z" fill="black"/>
<path d="M75.5408 65.3529H72.0587V61.883C72.0587 61.4493 71.7026 61.0944 71.2674 61.0944C70.8321 61.0944 70.476 61.4493 70.476 61.883V65.3529H66.9939C66.5586 65.3529 66.2025 65.7078 66.2025 66.1415C66.2025 66.5752 66.5586 66.9301 66.9939 66.9301H70.476V70.4C70.476 70.8337 70.8321 71.1886 71.2674 71.1886C71.7026 71.1886 72.0587 70.8337 72.0587 70.4V66.9301H75.5408C75.9761 66.9301 76.3322 66.5752 76.3322 66.1415C76.3322 65.7078 75.9761 65.3529 75.5408 65.3529Z" fill="white"/>
<path d="M50.8298 58.6826C50.8298 58.6826 5.02527 162.891 0.913373 188.639C-3.19852 214.391 7.37303 229.019 16.1838 233.702C24.9945 238.384 37.9138 233.117 47.3115 229.604C56.7091 226.092 67.8677 223.167 73.7404 226.677C79.6131 230.189 111.328 241.893 121.899 234.868C132.471 227.846 141.278 223.749 148.328 226.677C155.375 229.604 164.772 231.359 165.359 237.211C165.359 237.211 161.215 247.47 164.186 245.991C173.583 241.309 184.155 234.287 192.375 234.872C192.375 234.872 204.708 233.702 175.931 193.906C147.154 154.111 141.282 124.85 138.931 113.143C136.583 101.438 122.094 66.4504 94.2965 56.3397L50.8331 58.6793L50.8298 58.6826Z" fill="#C1272D"/>
<path opacity="0.39" d="M39.8758 231.28C38.0325 231.073 35.9749 230.892 34.1284 230.386C32.4269 229.92 30.7386 229.118 29.169 228.415C26.996 227.445 25.0176 225.842 23.2864 224.278C22.8149 223.854 22.3895 223.391 21.9872 222.901C20.8859 221.551 19.7351 220.177 18.8217 218.682C14.756 212.012 13.9481 204.014 13.9943 196.387C14.0503 187.453 14.6636 178.637 15.8804 169.785C16.962 161.918 18.8151 154.183 21.5322 146.715C24.523 138.493 28.0413 130.495 31.4739 122.455C33.0336 118.729 34.5405 114.966 35.8529 111.148C38.4546 103.594 40.3242 95.8196 42.4511 88.1273C43.1666 85.5381 43.9217 82.9554 44.7362 80.3957C45.9793 75.0528 47.2554 69.7198 48.5546 64.3901C49.0954 62.1722 50.2891 60.2401 51.8389 58.63L50.8298 58.6858C50.8298 58.6858 5.02527 162.891 0.913373 188.639C-3.19852 214.391 7.37304 229.019 16.1838 233.702C23.5799 237.635 33.8778 234.549 42.5533 231.379C41.663 231.405 40.7694 231.375 39.8758 231.277V231.28Z" fill="#9B151E"/>
<path opacity="0.39" d="M106.405 221.968C99.5757 214.009 93.4194 205.427 88.127 196.381C82.6929 187.088 78.4392 177.309 74.3998 167.347C70.1758 156.927 66.2948 146.356 63.0995 135.575C62.905 134.915 62.7072 134.251 62.5159 133.591C62.196 135.661 61.8894 137.734 61.5992 139.811C60.9859 144.589 60.4583 149.376 60.0132 154.174C58.3611 171.976 58.4205 189.967 60.4022 207.747C61.9026 208.131 63.4194 208.45 64.9131 208.805C68.4744 209.656 71.3101 212.202 73.2424 215.189C75.2835 218.347 75.4616 222.336 74.6471 225.891C74.5548 226.276 74.4427 226.647 74.3141 227.012C81.0936 230.675 108.782 240.671 120.28 235.742C115.275 231.546 110.632 226.903 106.401 221.971L106.405 221.968Z" fill="#9B151E"/>
<path opacity="0.39" d="M167.331 186.589C160.792 181.729 153.785 177.543 146.801 173.353C139.841 169.174 133.054 164.82 126.423 160.141C118.819 154.772 111.272 149.32 103.892 143.649C99.8593 140.55 95.8463 137.422 91.8993 134.212C92.9314 137.494 94.0129 140.764 95.1769 144.017C97.7456 151.193 100.548 158.284 103.486 165.316C104.568 167.823 105.739 170.287 106.965 172.729C111.486 181.722 116.782 190.344 122.856 198.378C128.187 205.075 134.116 211.325 140.797 216.697C142.535 217.979 144.319 219.201 146.155 220.345C149.199 222.241 151.246 224.915 152.414 228.221C158.55 230.399 164.875 232.446 165.353 237.214C165.353 237.214 161.208 247.473 164.179 245.994C173.577 241.312 184.148 234.29 192.369 234.875C192.369 234.875 204.127 233.758 177.893 196.66C174.721 192.957 171.14 189.635 167.328 186.589H167.331Z" fill="#9B151E"/>
<path opacity="0.56" d="M74.0273 61.0714C75.9101 64.2751 76.3025 68.2051 75.432 71.7735C74.202 76.8206 72.9886 81.871 71.8081 86.928C71.7718 87.0759 71.7388 87.227 71.7059 87.3749C73.1073 86.3858 74.6867 85.6399 76.2959 85.1208C78.149 84.5425 80.0022 84.4603 81.8554 84.8743C83.7118 84.9598 85.4364 85.5085 87.0389 86.5239C88.6645 87.3979 89.967 88.5907 90.9497 90.1022C92.1829 91.4428 93.0139 93.0168 93.4458 94.8273C93.5777 95.7637 93.7887 96.6772 94.0657 97.571C94.5307 98.4385 95.0484 99.2764 95.6089 100.091C98.5799 103.548 102.078 106.505 105.524 109.482C109.91 113.271 114.431 116.908 119.011 120.464C125.071 125.097 131.241 129.589 137.463 134.008C140.461 136.141 143.461 138.26 146.505 140.324C141.895 127.913 140.029 118.617 138.934 113.149C136.586 101.445 122.097 66.457 94.2999 56.3463L71.0464 57.5982C72.2796 58.5183 73.2787 59.6782 74.0339 61.0747L74.0273 61.0714Z" fill="#5B151E"/>
<path d="M175.928 193.906C147.151 154.111 141.278 124.85 138.927 113.143C136.579 101.438 122.091 66.4504 94.2932 56.3397L74.5449 57.4043C75.1978 57.7625 75.8441 58.147 76.4871 58.5544C78.0435 59.4613 79.5999 60.3715 81.0969 61.3737C81.7696 61.8206 82.4258 62.2905 83.0688 62.7768C86.3398 65.2445 89.6735 67.699 92.8325 70.3146C93.1127 70.5479 93.3897 70.7877 93.6601 71.0309C94.1646 71.4876 94.646 71.9674 95.0978 72.4734C95.3088 72.71 95.5133 72.9564 95.7177 73.2029C98.2435 76.2916 100.832 79.5972 103.173 82.8272C103.579 83.3891 103.951 83.974 104.284 84.5819C104.446 84.8776 104.601 85.1766 104.743 85.4822C106.481 89.146 108.007 93.0102 109.537 96.7659C110.17 98.3201 110.579 99.9204 110.945 101.553C111.183 102.605 111.384 103.666 111.555 104.731C112.32 109.472 112.914 114.253 113.497 119.018C114.002 123.142 114.048 127.282 114.401 131.416C114.546 133.118 114.698 134.82 114.866 136.519C115.558 140.287 116.452 144.01 117.629 147.654C118.632 149.494 119.723 151.275 120.897 153.014C122.213 154.512 123.584 155.968 125.019 157.354C126.644 158.33 128.309 159.244 129.971 160.16C132.824 161.734 135.666 163.335 138.264 165.306C142 168.135 147.042 171.467 150.58 175.183C154.287 179.081 157.69 183.385 160.476 187.982C161.234 189.234 161.867 190.568 162.461 191.905C164.324 196.101 166.2 200.304 167.813 204.605C168.093 205.354 168.347 206.11 168.561 206.879C169.29 209.514 169.481 212.396 169.837 215.035C170.091 216.931 170.866 220.355 170.721 222.812C170.714 222.96 170.701 223.108 170.681 223.256C170.154 227.179 169.623 231.099 169.095 235.023C169.069 235.2 169.046 235.378 169.006 235.552C168.94 235.857 168.841 236.143 168.729 236.436C167.424 239.518 166.118 242.6 164.812 245.682C174.048 241.006 184.333 234.306 192.375 234.878C192.375 234.878 204.708 233.708 175.931 193.913L175.928 193.906Z" fill="#9B151E"/>
<path d="M58.836 286.302C58.836 286.302 47.8951 302.932 41.5937 304.407C41.5937 304.407 36.031 309.211 38.9987 312.537C41.9663 315.862 47.1565 315.862 50.4935 315.123C53.8305 314.383 64.956 303.297 64.956 303.297L65.6979 301.45L66.8092 303.297L70.8881 300.339L68.6623 285.188L58.836 286.296V286.302Z" fill="#4C2421"/>
<path d="M90.5408 292.953L90.9101 305.147L94.989 311.429L95.7309 311.797C95.7309 311.797 97.2148 326.209 97.5841 326.948C97.9534 327.688 97.9534 329.534 100.179 331.381C102.405 333.228 107.968 335.814 111.674 332.12C115.384 328.424 115.753 324.731 115.753 324.731C115.753 324.731 105.369 300.711 105 298.493C104.631 296.275 103.147 291.103 103.147 291.103L90.5375 292.949L90.5408 292.953Z" fill="#4C2421"/>
<path d="M44.3899 134.941C44.3899 134.941 41.1387 147.405 40.8452 161.074C40.5814 173.455 54.6812 267.415 57.3389 285.004C57.5895 286.667 58.9547 287.939 60.6364 288.08L64.956 288.445C67.7225 288.678 70.0802 286.46 69.9978 283.693L67.1686 175.831L89.8021 293.692C89.8021 293.692 101.139 298.565 104.265 292.213C105.706 289.286 101.462 160.88 98.9525 149.37C96.4431 137.859 87.3159 129.904 87.3159 129.904L44.3932 134.941H44.3899Z" fill="#282247"/>
<path d="M56.6729 231.934C54.2328 231.927 51.8323 231.773 49.468 231.487C52.8413 255.119 56.1783 277.332 57.339 285.004C57.5896 286.667 58.9547 287.939 60.6364 288.08L64.956 288.445C67.7226 288.678 70.0802 286.46 69.9978 283.693L68.4612 230.889C64.6692 231.737 60.7419 232.085 56.6762 231.931L56.6729 231.934Z" fill="#191733"/>
<path d="M98.3062 214.749C92.9743 220.47 86.6564 224.514 79.3559 226.88C78.2611 227.452 78.7854 227.971 77.6643 228.448L89.7955 293.692C89.7955 293.692 101.132 298.565 104.258 292.213C105.076 290.551 104.06 248.439 102.573 210.237C101.271 211.811 99.8494 213.316 98.3062 214.746V214.749Z" fill="#191733"/>
<path d="M46.4146 135.411C46.4146 135.411 46.4146 141.076 52.7192 144.401C59.0239 147.727 68.293 149.573 73.1138 148.466C77.9347 147.359 92.0246 140.337 92.7665 136.272L92.6445 136.394L46.4146 135.408V135.411Z" fill="#262728"/>
<path d="M77.1207 141.287L74.9512 141.783L76.5255 148.627L78.695 148.132L77.1207 141.287Z" fill="#222A4E"/>
<path d="M58.1326 140.361L56.1018 139.454L53.2177 145.861L55.2485 146.768L58.1326 140.361Z" fill="#222A4E"/>
<path d="M83.3594 138.716L81.3514 139.673L84.3917 146.007L86.3997 145.05L83.3594 138.716Z" fill="#222A4E"/>
<path d="M51.847 137.966L50.2155 136.457L45.4223 141.604L47.0538 143.113L51.847 137.966Z" fill="#222A4E"/>
<path d="M57.5369 51.6541L65.5364 61.3244L83.2634 50.044L106.144 61.1733C106.144 61.1733 96.5125 97.2917 96.0673 104.678C95.7936 109.219 90.3957 120.615 93.1194 128.166C94.8736 133.032 93.1458 137.563 88.2359 139.246C82.0631 141.359 73.7173 143.675 67.871 143.202C63.0666 142.811 57.8765 141.625 53.6822 140.465C48.6404 139.068 44.0075 134.675 44.5945 129.493C46.1377 115.88 41.574 87.6838 43.3085 77.9181C45.6661 64.6366 51.6081 54.9827 51.6081 54.9827L57.5402 51.6573L57.5369 51.6541Z" fill="#DADEEA"/>
<path d="M65.3254 61.262L59.0207 58.6727L54.1998 61.262L59.0207 53.872L65.3254 61.262Z" fill="#BABBBF"/>
<path d="M66.8257 62.2576L67.9996 55.9881L81.4795 43.1896L87.3225 52.1141L74.9538 65.297L66.8257 62.2576Z" fill="#DADEEA"/>
<path d="M61.0552 46.1272L57.5401 49.0681C56.0233 52.3803 54.2031 61.262 54.2031 61.262L58.6514 55.7187L64.6131 60.9433C64.6131 60.9433 58.7536 53.6782 61.0519 46.1272H61.0552Z" fill="#DADEEA"/>
<path d="M75.7089 62.0013L67.9203 56.0867L65.6946 61.262L69.7735 59.7833L75.7089 62.0013Z" fill="#BABBBF"/>
<path d="M68.2559 143.725L60.667 142.903C59.9609 142.827 59.3264 143.335 59.2497 144.039L58.8465 147.737C58.7698 148.44 59.28 149.073 59.9861 149.149L67.575 149.971C68.2811 150.047 68.9157 149.539 68.9924 148.835L69.3955 145.137C69.4722 144.434 68.962 143.801 68.2559 143.725Z" fill="#CED0D8"/>
<path d="M67.7938 144.188L61.0179 143.454C60.4168 143.389 59.8766 143.822 59.8113 144.421L59.4873 147.394C59.422 147.993 59.8563 148.531 60.4574 148.596L67.2333 149.33C67.8344 149.395 68.3746 148.962 68.4399 148.363L68.7639 145.39C68.8292 144.791 68.3949 144.253 67.7938 144.188Z" fill="#262728"/>
<path d="M58.0677 288.33C56.1684 289.782 53.7777 290.416 51.8125 291.783C50.9716 292.368 48.116 294.517 49.1316 295.848C49.5306 296.37 50.2726 295.966 50.7639 295.795C51.7201 295.463 52.6599 295.056 53.5106 294.504C54.2855 294.001 54.9846 293.387 55.5352 292.641C56.2772 291.635 56.6564 290.416 57.6159 289.575C57.4511 289.48 57.2895 289.384 57.1246 289.289C56.7421 290.797 56.7058 292.358 57.0719 293.876C57.2334 294.54 57.7676 296.899 58.7832 296.761C59.8351 296.617 59.6603 294.313 59.6702 293.643C59.6933 291.819 59.3932 290.015 58.8294 288.284C58.714 287.925 58.1468 288.08 58.2622 288.438C58.6612 289.667 58.9382 290.922 59.0371 292.21C59.0833 292.805 59.0965 293.403 59.0734 294.001C59.0635 294.257 59.0602 295.989 58.8096 296.055C58.1699 296.219 57.6324 293.751 57.5401 293.252C57.306 291.977 57.3752 290.695 57.6918 289.444C57.7676 289.151 57.4181 288.97 57.2005 289.158C55.9705 290.235 55.5649 291.905 54.4042 293.048C53.7942 293.646 53.0787 294.119 52.317 294.51C51.8982 294.724 51.4662 294.911 51.0244 295.079C50.8628 295.141 49.8769 295.591 49.7582 295.503C49.557 295.352 49.834 294.566 49.9428 294.366C50.0681 294.132 50.2857 293.916 50.4605 293.718C50.7276 293.419 51.0178 293.143 51.3244 292.884C52.0037 292.312 52.7588 291.836 53.537 291.408C55.1363 290.531 56.9037 289.95 58.3611 288.832C58.6579 288.606 58.3644 288.096 58.0644 288.326L58.0677 288.33Z" fill="#3F1D1B"/>
<path d="M99.6978 295.831C99.2955 298.897 97.6534 301.667 97.0565 304.703C96.7861 306.073 96.674 307.473 96.8521 308.86C96.9543 309.655 97.1719 310.789 98.0359 311.127C98.9723 311.495 99.3318 310.266 99.645 309.632C100.248 308.403 100.756 307.115 101.037 305.774C101.307 304.483 101.366 303.155 101.116 301.854C100.822 300.33 100.14 298.923 100.262 297.339C100.08 297.389 99.8956 297.438 99.7143 297.487C100.713 299.196 102.082 300.652 103.75 301.729C104.558 302.252 105.429 302.679 106.335 302.998C106.863 303.182 107.816 303.625 108.235 302.998C108.621 302.419 108.057 301.677 107.724 301.243C107.1 300.431 106.421 299.659 105.689 298.943C104.087 297.376 102.25 296.078 100.252 295.059C99.9154 294.888 99.6186 295.391 99.955 295.565C101.436 296.321 102.834 297.224 104.106 298.296C104.749 298.838 105.363 299.419 105.937 300.034C106.425 300.556 107.348 301.345 107.565 302.019C107.968 303.267 105.844 302.186 105.468 302.012C104.799 301.7 104.159 301.322 103.559 300.888C102.191 299.902 101.073 298.641 100.222 297.188C100.067 296.922 99.6978 297.057 99.6747 297.336C99.4999 299.617 100.786 301.687 100.684 303.983C100.628 305.229 100.314 306.454 99.8824 307.621C99.645 308.258 99.368 308.879 99.0647 309.487C98.9558 309.704 98.8404 310.125 98.6591 310.263C98.2832 310.549 97.7655 310.135 97.6171 309.681C96.8686 307.388 97.5709 304.618 98.27 302.403C98.9624 300.215 99.9912 298.121 100.291 295.828C100.341 295.457 99.7538 295.46 99.7044 295.828L99.6978 295.831Z" fill="#3F1D1B"/>
<path d="M59.5318 56.7866C59.5318 56.7866 64.1515 58.8173 67.8215 55.975L71.2178 58.6826L67.4126 65.32L69.0448 85.2292L61.2992 97.0124C61.2992 97.0124 57.6292 88.8864 57.6292 88.0748C57.6292 87.2632 61.7048 64.9159 61.7048 64.9159L58.8525 58.8206L59.5318 56.7899V56.7866Z" fill="#C80000"/>
<path d="M88.2095 52.3178C88.2095 52.3178 63.3403 86.0375 62.5225 92.1328C62.5225 92.1328 55.8221 66.1875 55.5319 55.1141C55.5056 54.0462 56.1815 52.8994 55.6408 52.3605C55.5946 52.3145 51.1068 55.1634 51.1068 55.1634C51.1068 55.1634 42.1378 73.1536 42.1378 95.3859C42.1378 121.387 46.8762 106.903 42.5467 142.515C40.7034 157.67 40.6111 166.016 40.6111 166.016C40.6111 166.016 59.2613 167.705 62.5225 144.549C66.5157 157.203 75.9925 163.183 82.0927 164.051C99.2163 166.489 101.663 162.832 101.663 162.832L95.8595 132.855C95.8595 132.855 97.2708 99.9401 99.6713 92.5863C102.072 85.2325 109.864 65.1656 104.519 59.2313L88.2095 52.3244V52.3178Z" fill="#362D56"/>
<path d="M62.1235 144.618C57.695 120.957 58.8359 107.774 60.5044 104.038C65.0285 93.8908 85.71 81.9072 88.7568 80.1821L77.8786 75.8875L90.666 70.6662L91.8795 54.1349L92.285 54.1645L91.0518 70.9488L78.9667 75.8842L89.7032 80.123L89.324 80.33C89.0865 80.4581 65.6814 93.4242 60.8737 104.205C59.2217 107.912 58.1072 120.953 62.5225 144.546L62.1202 144.622L62.1235 144.618Z" fill="#4E4575"/>
<path d="M60.4879 104.159C58.3908 93.9138 55.1923 86.9773 52.8775 82.962C50.3714 78.6114 48.3369 76.6596 48.3138 76.6399L48.0533 76.3902L56.8839 73.9915L48.6799 69.5424L53.1973 53.7636L53.5897 53.8753L49.1613 69.342L57.9687 74.1197L48.8447 76.6005C49.4646 77.2544 51.1694 79.1898 53.2171 82.7418C55.5484 86.7867 58.7733 93.7725 60.8836 104.08L60.4846 104.162L60.4879 104.159Z" fill="#4E4575"/>
<path d="M51.2255 55.2061C51.2255 55.2061 30.2506 97.7024 29.0833 101.701C27.916 105.7 29.5483 112.029 32.8918 114.736C36.2354 117.441 68.8767 111.513 68.8767 111.513L44.756 101.695L39.9483 98.7802L51.2255 55.2061Z" fill="#362D56"/>
<path d="M47.0477 90.8941C47.0477 90.8941 42.2367 89.3793 38.448 93.4571C34.6592 97.5316 36.9938 99.1416 36.9938 99.1416L44.7131 100.449L47.0477 90.8941Z" fill="#EF9E78"/>
<path opacity="0.45" d="M47.7072 110.153C47.3643 107.774 46.4674 105.661 45.0132 103.811C44.1823 102.276 43.0875 100.962 41.7389 99.8711L44.7527 101.698L68.8734 111.516C68.8734 111.516 57.7842 113.531 47.8688 114.674C47.971 113.162 47.9084 111.635 47.7039 110.153H47.7072Z" fill="#0B101E"/>
<path d="M106.349 63.3748C106.329 63.3091 106.306 63.2401 106.286 63.1744C104.067 56.0637 94.3229 55.1897 90.8837 61.7976L76.9784 96.0792L47.3807 90.25C47.3807 90.25 41.7652 94.4264 42.9358 100.84C42.9358 100.84 75.521 114.092 77.0675 114.759C78.614 115.426 84.5493 116.715 89.5647 112.962L106.187 68.7571C106.837 67.0287 106.889 65.1393 106.345 63.3748H106.349Z" fill="#2D2749"/>
<path d="M69.7999 93.8579C69.7999 93.8579 78.2545 85.5479 81.2849 84.7692C84.3152 83.9937 90.399 86.2774 91.9949 87.5655C93.5909 88.8568 94.2701 90.089 93.5117 90.9039C93.5117 90.9039 94.3888 93.2303 92.3774 93.3683C92.3774 93.3683 92.3378 95.6356 91.4607 95.7933C91.4607 95.7933 91.5201 97.364 89.8054 97.8996C89.8054 97.8996 80.4078 95.5403 78.116 95.9576C77.018 96.1581 69.7966 93.8546 69.7966 93.8546L69.7999 93.8579Z" fill="#EF9E78"/>
</g>
<defs>
<clipPath id="clip0_54_1342">
<rect width="195" height="334" fill="white"/>
</clipPath>
</defs>
</svg>
