<svg width="20" height="20" viewBox="0 0 20 20" fill="none" xmlns="http://www.w3.org/2000/svg">
<g clip-path="url(#clip0_54_1670)">
<path d="M9.0593 16.8184H2.2726C1.51961 16.8184 0.908955 16.2078 0.908955 15.4548V5.90927H15.9091V8.78188C15.9091 9.03288 16.1128 9.23657 16.3638 9.23657C16.6147 9.23657 16.8184 9.03288 16.8184 8.78188V3.63625C16.8167 2.38169 15.8004 1.36492 14.5458 1.36365H13.6369C13.6369 0.610658 13.0262 0 12.2732 0C11.5203 0 10.9096 0.610658 10.9096 1.36365H5.9097C5.90927 0.610658 5.29862 0 4.54563 0C3.79264 0 3.18198 0.610658 3.18198 1.36365H2.27303C1.01805 1.36535 0.00170456 2.38169 0 3.63625V15.4544C0.00170456 16.7089 1.01805 17.7257 2.2726 17.727H9.05887C9.30987 17.727 9.51356 17.5233 9.51356 17.2723C9.51356 17.0213 9.30987 16.8176 9.05887 16.8176L9.0593 16.8184ZM11.8181 1.36365C11.8181 1.11265 12.0218 0.908955 12.2728 0.908955C12.5238 0.908955 12.7275 1.11265 12.7275 1.36365V2.2726C12.7275 2.5236 12.5238 2.72729 12.2728 2.72729C12.0218 2.72729 11.8181 2.5236 11.8181 2.2726V1.36365ZM4.09094 1.36365C4.09094 1.11265 4.29463 0.908955 4.54563 0.908955C4.79662 0.908955 5.00032 1.11265 5.00032 1.36365V2.2726C5.00032 2.5236 4.79662 2.72729 4.54563 2.72729C4.29463 2.72729 4.09094 2.5236 4.09094 2.2726V1.36365ZM0.908955 3.63625C0.908955 2.88326 1.51961 2.2726 2.2726 2.2726H3.18156C3.18156 3.02559 3.79221 3.63625 4.5452 3.63625C5.29819 3.63625 5.90885 3.02559 5.90885 2.2726H10.9087C10.9087 3.02559 11.5194 3.63625 12.2724 3.63625C13.0254 3.63625 13.636 3.02559 13.636 2.2726H14.545C15.298 2.2726 15.9086 2.88326 15.9086 3.63625V4.99989H0.908955V3.63625Z" fill="#D2D2D2"/>
<path d="M5.45451 8.18187C5.45451 7.67988 5.04754 7.27292 4.54555 7.27292H3.1819C2.67991 7.27292 2.27295 7.67988 2.27295 8.18187V9.54552C2.27295 10.0475 2.67991 10.4545 3.1819 10.4545H4.54555C5.04754 10.4545 5.45451 10.0475 5.45451 9.54552V8.18187ZM3.1819 9.54552V8.18187H4.54555V9.54552H3.1819Z" fill="#D2D2D2"/>
<path d="M10.0004 8.18187C10.0004 7.67988 9.59344 7.27292 9.09145 7.27292H7.7278C7.22581 7.27292 6.81885 7.67988 6.81885 8.18187V9.54552C6.81885 10.0475 7.22581 10.4545 7.7278 10.4545H9.09145C9.59344 10.4545 10.0004 10.0475 10.0004 9.54552V8.18187ZM7.72738 9.54552V8.18187H9.09102V9.54552H7.72738Z" fill="#D2D2D2"/>
<path d="M14.0911 9.15475C14.3421 9.15475 14.5458 8.95106 14.5458 8.70006V8.18187C14.5458 7.67988 14.1389 7.27292 13.6369 7.27292H12.2732C11.7712 7.27292 11.3643 7.67988 11.3643 8.18187V9.49097C11.3643 9.74197 11.568 9.94567 11.8189 9.94567C12.0699 9.94567 12.2736 9.74197 12.2736 9.49097V8.18187H13.6373V8.70006C13.6373 8.95106 13.841 9.15475 14.092 9.15475H14.0911Z" fill="#D2D2D2"/>
<path d="M4.54555 11.8181H3.1819C2.67991 11.8181 2.27295 12.2251 2.27295 12.7271V14.0907C2.27295 14.5927 2.67991 14.9997 3.1819 14.9997H4.54555C5.04754 14.9997 5.45451 14.5927 5.45451 14.0907V12.7271C5.45451 12.2251 5.04754 11.8181 4.54555 11.8181ZM3.1819 14.0911V12.7275H4.54555V14.0911H3.1819Z" fill="#D2D2D2"/>
<path d="M9.4046 11.8778C9.30488 11.8381 9.19835 11.8181 9.09096 11.8181H7.72731C7.22532 11.8181 6.81836 12.2251 6.81836 12.7271V14.0907C6.81836 14.5927 7.22532 14.9997 7.72731 14.9997H8.65459C8.90559 14.9997 9.10928 14.796 9.10928 14.545C9.10928 14.294 8.90559 14.0903 8.65459 14.0903H7.72731V12.7266L9.06838 12.7215C9.30233 12.8127 9.56568 12.6968 9.65687 12.4629C9.74679 12.2315 9.63471 11.9707 9.4046 11.8769V11.8778Z" fill="#D2D2D2"/>
<path d="M14.9999 10.0002C12.2385 10.0002 10 12.2388 10 15.0001C10 17.7615 12.2385 20 14.9999 20C17.7613 20 19.9998 17.7615 19.9998 15.0001C19.9964 12.24 17.76 10.0032 14.9999 10.0002ZM14.9999 19.0911C12.7405 19.0911 10.909 17.2595 10.909 15.0001C10.909 12.7407 12.7405 10.9092 14.9999 10.9092C17.2593 10.9092 19.0908 12.7407 19.0908 15.0001C19.0883 17.2583 17.258 19.0885 14.9999 19.0911Z" fill="#D2D2D2"/>
<path d="M15.4548 14.8118V12.7271C15.4548 12.4761 15.2511 12.2724 15.0001 12.2724C14.7491 12.2724 14.5454 12.4761 14.5454 12.7271V14.9997C14.5454 15.1203 14.5931 15.2358 14.6788 15.321L15.5877 16.23C15.7684 16.4042 16.0561 16.3996 16.2304 16.2189C16.4004 16.0429 16.4004 15.7633 16.2304 15.5873L15.4544 14.8113L15.4548 14.8118Z" fill="#D2D2D2"/>
</g>
<defs>
<clipPath id="clip0_54_1670">
<rect width="20" height="20" fill="white"/>
</clipPath>
</defs>
</svg>
