<svg width="22" height="21" viewBox="0 0 22 21" fill="none" xmlns="http://www.w3.org/2000/svg">
<path d="M16.3498 8.84995H11.15V3.64989C11.15 3.29128 10.8588 3 10.4998 3C10.1409 3 9.84995 3.29128 9.84995 3.64989V8.84995H4.64989C4.29128 8.84995 4 9.14123 4 9.49985C4 9.85846 4.29128 10.15 4.64989 10.15H9.84995V15.3498C9.84995 15.7087 10.1412 16 10.4998 16C10.8585 16 11.15 15.7087 11.15 15.3498V10.15H16.3498C16.7087 10.15 17 9.85877 17 9.49985C17 9.14093 16.7087 8.84995 16.3498 8.84995Z" fill="white"/>
</svg>
