<svg width="36" height="33" viewBox="0 0 36 33" fill="none" xmlns="http://www.w3.org/2000/svg">
<mask id="mask0_212_1070" style="mask-type:luminance" maskUnits="userSpaceOnUse" x="0" y="0" width="36" height="33">
<path d="M35.0128 0H0V32.3415H35.0128V0Z" fill="white"/>
</mask>
<g mask="url(#mask0_212_1070)">
<path d="M29.0875 17.5915C28.512 17.5915 28.0465 18.0911 28.0465 18.7071V30.0255H6.92348V18.7071C6.92348 18.0911 6.45673 17.5915 5.88258 17.5915C5.30842 17.5915 4.84167 18.0911 4.84167 18.7071V31.1411C4.84167 31.7571 5.30842 32.2566 5.88258 32.2566H29.0888C29.6643 32.2566 30.1297 31.7571 30.1297 31.1411V18.7071C30.1297 18.0911 29.6616 17.5915 29.0875 17.5915Z" fill="#2B3674"/>
<path d="M34.6287 17.9171L18.2129 0.32625C17.8058 -0.10875 17.1481 -0.10875 16.741 0.32625L0.3239 17.9171C-0.0924612 18.3409 -0.109699 19.0481 0.285447 19.4943C0.681919 19.9405 1.33961 19.9588 1.7573 19.535C1.77056 19.5224 1.78249 19.5083 1.79575 19.4943L17.469 2.70191L33.1422 19.4943C33.5387 19.9405 34.1964 19.9588 34.6141 19.535C35.0304 19.1112 35.0477 18.404 34.6525 17.9578C34.6406 17.9437 34.6273 17.9297 34.6141 17.9171H34.6287Z" fill="#2B3674"/>
<g clip-path="url(#clip0_212_1070)">
<path d="M21.6403 26.2421C20.402 27.3402 18.7842 28 17.0088 28C13.1422 28 10 24.8578 10 20.9912C10 17.1246 12.9086 14.222 16.5707 14V16.9319C14.5207 17.1479 12.9204 18.8886 12.9204 20.9912C12.9204 23.2458 14.7545 25.0796 17.0088 25.0796C17.9782 25.0796 18.8718 24.7409 19.5727 24.1742L21.6403 26.2418V26.2421Z" fill="#2B3674"/>
<path d="M24 21.4293C23.9067 23.0295 23.2698 24.4899 22.2596 25.6228L20.192 23.5552C20.6709 22.9652 20.9863 22.2293 21.0681 21.4293H24Z" fill="#2B3674"/>
<path d="M24 20.5532H21.0681C20.8696 18.6491 19.3509 17.1307 17.4468 16.9319V14C20.9629 14.2103 23.7897 17.037 24 20.5532Z" fill="#2B3674"/>
</g>
</g>
<defs>
<clipPath id="clip0_212_1070">
<rect width="14" height="14" fill="white" transform="translate(10 14)"/>
</clipPath>
</defs>
</svg>
