<svg width="48" height="48" viewBox="0 0 48 48" fill="none" xmlns="http://www.w3.org/2000/svg">
<circle cx="23.7061" cy="24.4447" r="23.5201" fill="url(#paint0_linear_54_1403)"/>
<g clip-path="url(#clip0_54_1403)">
<path d="M13.1103 37.5103H15.3304C16.1452 37.5103 16.8123 36.8317 16.8123 36.0029V35.7026L22.2477 37.4213C24.1014 38.0053 26.1465 37.9052 27.9893 37.0486C30.1 36.0641 33.8567 34.3677 36.0002 33.372C37.0118 32.8992 37.2305 31.8369 36.9243 31.0303C36.6345 30.2628 35.8197 29.6009 34.7316 29.9568C34.6331 29.9902 32.6865 30.7578 29.9742 31.8257C30.0617 30.7745 29.2415 29.8623 28.1971 29.8623H25.3044C25.0529 29.8623 24.8287 29.7566 24.6755 29.5675C24.0084 28.7332 23.1718 28.1936 22.1985 27.9545C21.854 27.871 21.4766 27.8265 21.0775 27.8265H16.8068V27.6875C16.8068 26.8587 16.1397 26.1801 15.3249 26.1801H13.1103C12.2955 26.1801 11.6284 26.8587 11.6284 27.6875V36.0029C11.6284 36.8317 12.2955 37.5103 13.1103 37.5103ZM16.8123 28.6664C21.0119 28.6942 21.2907 28.5941 22.0071 28.7721C22.8164 28.9668 23.4835 29.4062 24.0412 30.1015C24.3475 30.4797 24.8068 30.7022 25.3044 30.7022H28.1971C28.7275 30.7022 29.1595 31.1416 29.1595 31.6867C29.1595 32.2318 28.7275 32.6712 28.1916 32.6712H21.4657C21.2415 32.6712 21.0556 32.8603 21.0556 33.0883C21.0556 33.3164 21.2415 33.5055 21.4657 33.5055H28.1916C28.7111 33.5055 29.1813 33.2775 29.5094 32.9159L34.9776 30.7634C35.601 30.5576 36.0002 30.9525 36.1533 31.3474C36.3228 31.7924 36.2353 32.3597 35.6557 32.6323C33.5559 33.6112 29.7391 35.3355 27.6448 36.3089C26.0262 37.0598 24.1943 37.1821 22.4883 36.6426L16.8068 34.846V28.6775L16.8123 28.6664ZM12.4486 27.6875C12.4486 27.3148 12.7439 27.0144 13.1103 27.0144H15.3304C15.6968 27.0144 15.992 27.3148 15.992 27.6875V36.0029C15.992 36.3756 15.6968 36.676 15.3304 36.676H13.1103C12.7439 36.676 12.4486 36.3756 12.4486 36.0029V27.6875Z" fill="white"/>
<path d="M19.7758 18.3708C19.8305 18.4153 19.8524 18.4932 19.8414 18.5766C19.7211 19.3053 19.7157 20.0673 19.8414 20.8404C19.8524 20.9239 19.8305 20.9962 19.7758 21.0462L18.9119 21.8027C18.54 22.1309 18.4471 22.6815 18.6931 23.1154L19.7047 24.9008C19.9617 25.3569 20.4867 25.5238 21.039 25.3291L22.0178 24.9843C22.0834 24.962 22.16 24.9787 22.2201 25.0288C22.7997 25.5127 23.4505 25.8909 24.1449 26.1523C24.2215 26.1801 24.2762 26.2413 24.2871 26.3136L24.5058 27.465C24.5988 27.9545 25.0253 28.3105 25.5174 28.3105H27.5407C28.0547 28.3105 28.4593 27.9322 28.5742 27.3482L28.771 26.3136C28.7874 26.2135 28.8749 26.169 28.9132 26.1579C29.6077 25.8965 30.2529 25.5127 30.838 25.0343C30.8981 24.9843 30.9802 24.9676 31.0458 24.9898L32.134 25.3736C32.5988 25.5349 33.1128 25.3402 33.3588 24.9064L34.3705 23.1209C34.6165 22.6871 34.5236 22.1364 34.1517 21.8083L33.2823 21.0407C33.1182 20.8961 33.3096 20.7403 33.3096 19.7113C33.3096 19.3386 33.2768 18.9549 33.2167 18.5878C33.2057 18.5043 33.2276 18.432 33.2823 18.382L34.1572 17.6088C34.529 17.2806 34.6165 16.73 34.3759 16.2961L33.3643 14.5107C33.1073 14.0546 32.5824 13.8877 32.0246 14.0824L31.0458 14.4272C30.9802 14.4495 30.9036 14.4328 30.838 14.3827C30.2584 13.8988 29.6131 13.515 28.9187 13.2536C28.8421 13.2258 28.7874 13.1646 28.7765 13.0923L28.5578 11.9409C28.4648 11.4515 28.0383 11.0955 27.5461 11.0955H25.5229C25.0089 11.0955 24.6042 11.4737 24.4894 12.0577L24.2926 13.0979C24.2762 13.198 24.1887 13.2425 24.1504 13.2536C23.4559 13.5206 22.8107 13.8988 22.2311 14.3827C22.1709 14.4384 22.0889 14.455 22.0233 14.4272L20.9351 14.0434C20.4703 13.8821 19.9508 14.0768 19.7047 14.5107L18.6931 16.2961C18.4471 16.73 18.54 17.2806 18.9119 17.6088L19.7813 18.3764L19.7758 18.3708ZM19.3985 16.7133L20.4101 14.9278C20.4594 14.8388 20.5632 14.7999 20.6562 14.8333L21.7444 15.2171C22.0834 15.3394 22.4552 15.2671 22.7451 15.028C23.2536 14.5997 23.8223 14.2659 24.4293 14.0323C24.7738 13.8988 25.0198 13.6096 25.0909 13.2536L25.2878 12.2135C25.3096 12.1078 25.3643 11.9243 25.512 11.9243H27.5352C27.6336 11.9243 27.7211 11.9966 27.7375 12.0967L27.9563 13.2481C28.0219 13.604 28.2734 13.8988 28.6179 14.0323C29.2249 14.2659 29.7936 14.5997 30.3021 15.028C30.5865 15.2671 30.9583 15.3394 31.2973 15.2171L32.2761 14.8722C32.38 14.8388 32.5605 14.7943 32.6316 14.9278L33.6432 16.7133C33.6924 16.8023 33.676 16.9135 33.5994 16.9803L32.7245 17.7534C32.4566 17.9926 32.3308 18.3541 32.391 18.7268C32.5003 19.4054 32.4949 20.0729 32.391 20.7014C32.3308 21.0741 32.4566 21.4356 32.73 21.6748L33.5994 22.4423C33.676 22.5091 33.6924 22.6203 33.6432 22.7093L32.6316 24.4948C32.5824 24.5838 32.4785 24.6227 32.3855 24.5894L31.2973 24.2056C30.9583 24.0888 30.5919 24.1555 30.3021 24.3947C29.7881 24.823 29.2194 25.1567 28.6124 25.3847C28.2679 25.5182 28.0164 25.8075 27.9508 26.1635L27.7539 27.198C27.7321 27.3037 27.6774 27.4872 27.5297 27.4872H25.5065C25.4081 27.4872 25.3206 27.4149 25.3042 27.3148L25.0855 26.1635C25.0198 25.8075 24.7683 25.5127 24.4238 25.3792C23.8168 25.1456 23.2481 24.8174 22.7341 24.3891C22.4552 24.1555 22.0834 24.0832 21.7444 24.2L20.7656 24.5449C20.6617 24.5782 20.4812 24.6227 20.4101 24.4892L19.3985 22.7093C19.3493 22.6203 19.3657 22.5091 19.4423 22.4423L20.3062 21.6859C20.5797 21.4467 20.7054 21.0852 20.6453 20.7125C20.5414 20.0729 20.5359 19.4054 20.6453 18.7212C20.7054 18.3486 20.5797 17.987 20.3117 17.7479L19.4423 16.9803C19.3657 16.9135 19.3493 16.8023 19.3985 16.7133Z" fill="white"/>
<path d="M26.5235 24.5226C29.1428 24.5226 31.259 22.3645 31.259 19.7058C31.259 17.047 29.1373 14.8889 26.5235 14.8889C23.9097 14.8889 21.7881 17.047 21.7881 19.7058C21.7881 22.3645 23.9535 24.5226 26.5235 24.5226ZM26.5235 23.6883C25.583 23.6883 24.5987 23.3212 23.8441 22.6092C24.473 21.7527 25.4518 21.2465 26.5181 21.2465C27.5844 21.2465 28.5632 21.7527 29.192 22.6148C28.4484 23.3212 27.4805 23.6939 26.5181 23.6939L26.5235 23.6883ZM25.326 19.1885C25.326 18.5155 25.8619 17.9704 26.5235 17.9704C27.1852 17.9704 27.7211 18.5155 27.7211 19.1885C27.7211 19.8615 27.1852 20.401 26.529 20.4066C25.8728 20.4066 25.3369 19.8615 25.3369 19.1885H25.326ZM26.5235 15.7232C28.6835 15.7232 30.4388 17.5087 30.4388 19.7058C30.4388 20.5234 30.1927 21.3077 29.7443 21.964C29.2631 21.3577 28.6288 20.9183 27.9234 20.6625C28.3007 20.2898 28.5358 19.767 28.5358 19.194C28.5358 18.0649 27.6281 17.1416 26.5181 17.1416C25.408 17.1416 24.5003 18.0649 24.5003 19.194C24.5003 19.7725 24.7354 20.2898 25.1128 20.6625C24.4074 20.9183 23.7785 21.3633 23.2918 21.964C22.8434 21.3021 22.6028 20.5234 22.6028 19.7058C22.6028 17.5087 24.3581 15.7232 26.5181 15.7232H26.5235Z" fill="white"/>
</g>
<defs>
<linearGradient id="paint0_linear_54_1403" x1="0.186035" y1="24.4447" x2="47.2262" y2="24.4447" gradientUnits="userSpaceOnUse">
<stop stop-color="#4BAE4F"/>
<stop offset="1" stop-color="#06870B"/>
</linearGradient>
<clipPath id="clip0_54_1403">
<rect width="25.4271" height="26.6985" fill="white" transform="translate(11.6284 11.0955)"/>
</clipPath>
</defs>
</svg>
