<svg width="48" height="48" viewBox="0 0 48 48" fill="none" xmlns="http://www.w3.org/2000/svg">
<circle cx="23.9976" cy="24.4447" r="23.5201" fill="url(#paint0_linear_54_1393)"/>
<g clip-path="url(#clip0_54_1393)">
<path d="M34.544 14.4199H33.3109C33.2263 14.1919 33.0141 14.0297 32.7656 14.0297C32.5172 14.0297 32.4347 13.8406 32.4113 13.7827C32.388 13.7249 32.3262 13.5217 32.4938 13.3471C32.6043 13.232 32.665 13.0791 32.665 12.9164C32.665 12.7537 32.6043 12.6008 32.4938 12.4856L32.0165 11.9884C31.7883 11.7506 31.4173 11.7506 31.1891 11.9884C31.021 12.1635 30.8264 12.0987 30.7709 12.0744C30.7154 12.0506 30.5339 11.9528 30.5339 11.7052C30.5339 11.3691 30.2714 11.0961 29.9492 11.0961H29.2743C28.9516 11.0961 28.6896 11.3696 28.6896 11.7052C28.6896 11.9528 28.508 12.05 28.4525 12.0744C28.397 12.0981 28.2025 12.163 28.0344 11.9879C27.8061 11.7506 27.4352 11.7506 27.2074 11.9879L26.7302 12.4851C26.6197 12.6002 26.559 12.7532 26.559 12.9158C26.559 13.0785 26.6197 13.2315 26.7302 13.3466C26.8982 13.5217 26.836 13.7244 26.8126 13.7822C26.7893 13.84 26.6959 14.0292 26.4583 14.0292C26.2207 14.0292 25.9976 14.1913 25.9131 14.4194H15.1448C14.0678 14.4199 13.191 15.3328 13.191 16.4553V29.7062C13.191 30.8287 14.0678 31.7415 15.1448 31.7415H21.3987C21.3805 32.9975 21.0905 34.2611 20.7652 35.0194H19.4543C18.7202 35.0194 18.1231 35.6414 18.1231 36.4067C18.1231 37.172 18.7202 37.7941 19.4548 37.7941H29.8133C30.5473 37.7941 31.145 37.172 31.145 36.4067C31.145 35.6414 30.5479 35.0194 29.8133 35.0194H28.4982C28.1573 34.2476 27.8492 32.9797 27.8196 31.7415H34.1223C35.1998 31.7415 36.076 30.8282 36.076 29.7062V16.0159C36.076 15.136 35.3886 14.4199 34.5445 14.4199H34.544ZM26.5994 14.7772C26.9953 14.7269 27.3262 14.4664 27.4834 14.0719C27.6401 13.6773 27.583 13.2493 27.3371 12.9223L27.6266 12.6208C27.9405 12.8769 28.3519 12.9364 28.7301 12.7732C29.1088 12.6099 29.3588 12.2646 29.4071 11.8522H29.8164C29.8646 12.2646 30.1147 12.6094 30.4934 12.7732C30.8721 12.9369 31.283 12.8769 31.5968 12.6208L31.8863 12.9223C31.6409 13.2493 31.5833 13.6779 31.74 14.0719C31.8967 14.4664 32.2282 14.7269 32.624 14.7772V15.2036C32.2282 15.2539 31.8972 15.5144 31.74 15.9089C31.5833 16.3034 31.6404 16.7315 31.8863 17.0584L31.5968 17.36C31.283 17.1038 30.8716 17.0444 30.4934 17.2076C30.1147 17.3708 29.8646 17.7162 29.8164 18.1285H29.4071C29.3588 17.7162 29.1088 17.3708 28.7301 17.2076C28.3513 17.0444 27.94 17.1044 27.6261 17.3605L27.3366 17.059C27.582 16.732 27.6396 16.3034 27.4829 15.9094C27.3262 15.5149 26.9947 15.2544 26.5989 15.2041V14.7777L26.5994 14.7772ZM15.1448 15.1766H25.8731V15.3425C25.8731 15.6787 26.1356 15.9516 26.4578 15.9516C26.6954 15.9516 26.7888 16.1407 26.8121 16.1986C26.8355 16.2564 26.8972 16.4591 26.7296 16.6342C26.5014 16.872 26.5014 17.2584 26.7296 17.4957L27.2069 17.9929C27.4352 18.2307 27.8061 18.2307 28.0339 17.9929C28.2019 17.8178 28.3965 17.8821 28.4525 17.9064C28.508 17.9302 28.6896 18.028 28.6896 18.2761C28.6896 18.6122 28.9521 18.8852 29.2743 18.8852H29.9492C30.2719 18.8852 30.5339 18.6117 30.5339 18.2761C30.5339 18.0286 30.7154 17.9313 30.7709 17.9069C30.8264 17.8832 31.0215 17.8183 31.1891 17.9934C31.4173 18.2312 31.7883 18.2312 32.016 17.9934L32.4933 17.4962C32.7215 17.2584 32.7215 16.872 32.4933 16.6347C32.3252 16.4596 32.3875 16.2569 32.4108 16.1991C32.4341 16.1413 32.5275 15.9521 32.7651 15.9521C33.0878 15.9521 33.3498 15.6787 33.3498 15.343V15.1771H34.543C34.9871 15.1771 35.3481 15.5538 35.3481 16.0164V27.6897H13.9173V16.4553C13.9173 15.75 14.4683 15.1766 15.1448 15.1766ZM30.4176 36.4073C30.4176 36.7548 30.1463 37.038 29.8122 37.038H19.4538C19.1202 37.038 18.8489 36.7553 18.8489 36.4073C18.8489 36.0592 19.1202 35.7766 19.4538 35.7766H29.8122C30.1458 35.7766 30.4176 36.0592 30.4176 36.4073ZM27.7075 35.0199H21.5517C21.891 34.0941 22.1089 32.863 22.125 31.7421H27.0928C27.1182 32.85 27.3511 34.0817 27.7075 35.0199ZM34.1217 30.9854H15.1448C14.4678 30.9854 13.9173 30.412 13.9173 29.7067V28.4458H35.3492V29.7067C35.3492 30.412 34.7982 30.9854 34.1217 30.9854ZM25.8711 29.7154C25.8711 29.9245 25.7087 30.0937 25.5079 30.0937H23.7586C23.5578 30.0937 23.3954 29.9245 23.3954 29.7154C23.3954 29.5062 23.5578 29.337 23.7586 29.337H25.5079C25.7087 29.337 25.8711 29.5062 25.8711 29.7154ZM29.612 17.0584C30.7066 17.0584 31.5968 16.1305 31.5968 14.9907C31.5968 13.8508 30.7061 12.9229 29.612 12.9229C28.5179 12.9229 27.6271 13.8508 27.6271 14.9907C27.6271 16.1305 28.5174 17.0584 29.612 17.0584ZM29.612 13.679C30.3061 13.679 30.8705 14.2675 30.8705 14.9901C30.8705 15.7127 30.3056 16.3013 29.612 16.3013C28.9184 16.3013 28.3534 15.7132 28.3534 14.9901C28.3534 14.267 28.9179 13.679 29.612 13.679ZM16.3561 22.5889C16.6212 22.5889 16.8401 22.7413 16.9418 22.9975C17.0435 23.2537 16.9921 23.5223 16.8049 23.7179C16.6804 23.8476 16.6119 24.02 16.6119 24.2038C16.6119 24.3875 16.6804 24.56 16.8049 24.6897L17.4424 25.3539C17.6998 25.6214 18.1179 25.6214 18.3747 25.3539C18.5625 25.1582 18.8208 25.1047 19.0662 25.2107C19.3116 25.3166 19.4579 25.5447 19.4579 25.8214C19.4579 26.2002 19.7536 26.5083 20.1173 26.5083H21.0189C21.3826 26.5083 21.6783 26.2002 21.6783 25.8214C21.6783 25.5452 21.8246 25.3171 22.0705 25.2112C22.3159 25.1053 22.5742 25.1588 22.7615 25.3539C22.886 25.4836 23.0515 25.5549 23.2279 25.5549C23.4043 25.5549 23.5698 25.4836 23.6943 25.3539L24.3318 24.6897C24.4563 24.56 24.5248 24.3875 24.5248 24.2038C24.5248 24.02 24.4563 23.8476 24.3318 23.7179C24.1446 23.5228 24.0932 23.2537 24.1949 22.9975C24.2966 22.7413 24.5155 22.5889 24.7806 22.5889C25.1442 22.5889 25.44 22.2809 25.44 21.902V20.9627C25.44 20.5838 25.1442 20.2758 24.7806 20.2758C24.5155 20.2758 24.2966 20.1234 24.1949 19.8672C24.0932 19.611 24.1446 19.3424 24.3318 19.1468C24.5892 18.8787 24.5892 18.4431 24.3318 18.1756L23.6943 17.5113C23.4369 17.2438 23.0188 17.2438 22.762 17.5113C22.5747 17.7064 22.3164 17.7599 22.0705 17.654C21.8251 17.5481 21.6783 17.32 21.6783 17.0438C21.6783 16.665 21.3826 16.3569 21.0189 16.3569H20.1173C19.7536 16.3569 19.4579 16.665 19.4579 17.0438C19.4579 17.32 19.3116 17.5481 19.0657 17.654C18.8198 17.7599 18.562 17.707 18.3742 17.5113C18.1169 17.2438 17.6987 17.2438 17.4419 17.5113L16.8043 18.1756C16.547 18.4436 16.5475 18.8792 16.8043 19.1468C16.9916 19.3419 17.043 19.611 16.9413 19.8666C16.8396 20.1223 16.6207 20.2752 16.3556 20.2752C15.9919 20.2752 15.6962 20.5833 15.6962 20.9621V21.9015C15.6962 22.2803 15.9919 22.5884 16.3556 22.5884L16.3561 22.5889ZM16.4236 21.0313C16.9553 21.0059 17.4072 20.6757 17.6131 20.1574C17.8191 19.6391 17.7236 19.0727 17.3651 18.663L17.9099 18.095C18.3031 18.4685 18.8468 18.5679 19.3443 18.3534C19.8418 18.1388 20.1588 17.6681 20.1832 17.1141H20.9541C20.9784 17.6681 21.2954 18.1388 21.7929 18.3534C22.2904 18.5679 22.8341 18.4685 23.2274 18.095L23.7726 18.663C23.4141 19.0727 23.3187 19.6391 23.5246 20.1574C23.7306 20.6757 24.1824 21.0059 24.7142 21.0313V21.8339C24.1824 21.8593 23.7306 22.1895 23.5246 22.7078C23.3187 23.2261 23.4141 23.7925 23.7726 24.2022L23.2274 24.7702C22.8341 24.3967 22.2904 24.2973 21.7929 24.5119C21.2954 24.7264 20.9784 25.1972 20.9541 25.7511H20.1837C20.1593 25.1966 19.8423 24.7259 19.3453 24.5113C18.8478 24.2968 18.3041 24.3967 17.9109 24.7702L17.3662 24.2022C17.7247 23.7925 17.8201 23.2261 17.6142 22.7078C17.4082 22.1895 16.9563 21.8593 16.4246 21.8339V21.0313H16.4236ZM20.5686 24.0676C21.9631 24.0676 23.0977 22.8856 23.0977 21.4329C23.0977 19.9801 21.9631 18.7982 20.5686 18.7982C19.1741 18.7982 18.0396 19.9801 18.0396 21.4329C18.0396 22.8856 19.1741 24.0676 20.5686 24.0676ZM20.5686 19.5543C21.5626 19.5543 22.3714 20.3968 22.3714 21.4323C22.3714 22.4679 21.5626 23.3104 20.5686 23.3104C19.5746 23.3104 18.7658 22.4679 18.7658 21.4323C18.7658 20.3968 19.5746 19.5543 20.5686 19.5543ZM26.6036 26.1294C26.6036 25.9203 26.766 25.7511 26.9667 25.7511H30.3943C30.5951 25.7511 30.7574 25.9203 30.7574 26.1294C30.7574 26.3386 30.5951 26.5078 30.3943 26.5078H26.9667C26.766 26.5078 26.6036 26.3386 26.6036 26.1294ZM26.6036 21.4329C26.6036 21.2237 26.766 21.0546 26.9667 21.0546H33.8224C34.0232 21.0546 34.1855 21.2237 34.1855 21.4329C34.1855 21.642 34.0232 21.8112 33.8224 21.8112H26.9667C26.766 21.8112 26.6036 21.642 26.6036 21.4329ZM26.6036 23.7812C26.6036 23.572 26.766 23.4028 26.9667 23.4028H33.8224C34.0232 23.4028 34.1855 23.572 34.1855 23.7812C34.1855 23.9903 34.0232 24.1595 33.8224 24.1595H26.9667C26.766 24.1595 26.6036 23.9903 26.6036 23.7812Z" fill="white"/>
</g>
<defs>
<linearGradient id="paint0_linear_54_1393" x1="0.477539" y1="24.4447" x2="47.5177" y2="24.4447" gradientUnits="userSpaceOnUse">
<stop stop-color="#4BAE4F"/>
<stop offset="1" stop-color="#06870B"/>
</linearGradient>
<clipPath id="clip0_54_1393">
<rect width="22.8844" height="26.6985" fill="white" transform="translate(13.191 11.0955)"/>
</clipPath>
</defs>
</svg>
