<svg width="160" height="125" viewBox="0 0 160 125" fill="none" xmlns="http://www.w3.org/2000/svg">
<path d="M15.5455 99.5455C15.4091 98.3939 14.8561 97.5 13.8864 96.8636C12.9167 96.2273 11.7273 95.9091 10.3182 95.9091C9.28788 95.9091 8.38636 96.0758 7.61364 96.4091C6.84849 96.7424 6.25 97.2008 5.81818 97.7841C5.39394 98.3674 5.18182 99.0303 5.18182 99.7727C5.18182 100.394 5.32955 100.928 5.625 101.375C5.92803 101.814 6.31439 102.182 6.78409 102.477C7.25379 102.765 7.74621 103.004 8.26136 103.193C8.77652 103.375 9.25 103.523 9.68182 103.636L12.0455 104.273C12.6515 104.432 13.3258 104.652 14.0682 104.932C14.8182 105.212 15.5341 105.595 16.2159 106.08C16.9053 106.557 17.4735 107.17 17.9205 107.92C18.3674 108.67 18.5909 109.591 18.5909 110.682C18.5909 111.939 18.2614 113.076 17.6023 114.091C16.9508 115.106 15.9962 115.913 14.7386 116.511C13.4886 117.11 11.9697 117.409 10.1818 117.409C8.51515 117.409 7.07197 117.14 5.85227 116.602C4.64015 116.064 3.68561 115.314 2.98864 114.352C2.29924 113.39 1.90909 112.273 1.81818 111H4.72727C4.80303 111.879 5.09848 112.606 5.61364 113.182C6.13636 113.75 6.79545 114.174 7.59091 114.455C8.39394 114.727 9.25758 114.864 10.1818 114.864C11.2576 114.864 12.2235 114.689 13.0795 114.341C13.9356 113.985 14.6136 113.492 15.1136 112.864C15.6136 112.227 15.8636 111.485 15.8636 110.636C15.8636 109.864 15.6477 109.235 15.2159 108.75C14.7841 108.265 14.2159 107.871 13.5114 107.568C12.8068 107.265 12.0455 107 11.2273 106.773L8.36364 105.955C6.54545 105.432 5.10606 104.686 4.04545 103.716C2.98485 102.746 2.45455 101.477 2.45455 99.9091C2.45455 98.6061 2.80682 97.4697 3.51136 96.5C4.22348 95.5227 5.17803 94.7652 6.375 94.2273C7.57955 93.6818 8.92424 93.4091 10.4091 93.4091C11.9091 93.4091 13.2424 93.678 14.4091 94.2159C15.5758 94.7462 16.5 95.4735 17.1818 96.3977C17.8712 97.322 18.2348 98.3712 18.2727 99.5455H15.5455ZM38.4972 93.7273H41.3153V109.136C41.3153 110.727 40.9403 112.148 40.1903 113.398C39.4479 114.64 38.3987 115.621 37.0426 116.341C35.6866 117.053 34.0956 117.409 32.2699 117.409C30.4441 117.409 28.8532 117.053 27.4972 116.341C26.1411 115.621 25.0881 114.64 24.3381 113.398C23.5956 112.148 23.2244 110.727 23.2244 109.136V93.7273H26.0426V108.909C26.0426 110.045 26.2926 111.057 26.7926 111.943C27.2926 112.822 28.0047 113.515 28.929 114.023C29.8608 114.523 30.9744 114.773 32.2699 114.773C33.5653 114.773 34.679 114.523 35.6108 114.023C36.5426 113.515 37.2547 112.822 37.7472 111.943C38.2472 111.057 38.4972 110.045 38.4972 108.909V93.7273ZM65.6705 101H62.8523C62.6856 100.189 62.3939 99.4773 61.9773 98.8636C61.5682 98.25 61.0682 97.7348 60.4773 97.3182C59.8939 96.8939 59.2462 96.5758 58.5341 96.3636C57.822 96.1515 57.0795 96.0455 56.3068 96.0455C54.8977 96.0455 53.6212 96.4015 52.4773 97.1136C51.3409 97.8258 50.4356 98.875 49.7614 100.261C49.0947 101.648 48.7614 103.348 48.7614 105.364C48.7614 107.379 49.0947 109.08 49.7614 110.466C50.4356 111.852 51.3409 112.902 52.4773 113.614C53.6212 114.326 54.8977 114.682 56.3068 114.682C57.0795 114.682 57.822 114.576 58.5341 114.364C59.2462 114.152 59.8939 113.837 60.4773 113.42C61.0682 112.996 61.5682 112.477 61.9773 111.864C62.3939 111.242 62.6856 110.53 62.8523 109.727H65.6705C65.4583 110.917 65.072 111.981 64.5114 112.92C63.9508 113.86 63.2538 114.659 62.4205 115.318C61.5871 115.97 60.6515 116.466 59.6136 116.807C58.5833 117.148 57.4811 117.318 56.3068 117.318C54.322 117.318 52.5568 116.833 51.0114 115.864C49.4659 114.894 48.25 113.515 47.3636 111.727C46.4773 109.939 46.0341 107.818 46.0341 105.364C46.0341 102.909 46.4773 100.788 47.3636 99C48.25 97.2121 49.4659 95.8333 51.0114 94.8636C52.5568 93.8939 54.322 93.4091 56.3068 93.4091C57.4811 93.4091 58.5833 93.5795 59.6136 93.9205C60.6515 94.2614 61.5871 94.7614 62.4205 95.4205C63.2538 96.072 63.9508 96.8674 64.5114 97.8068C65.072 98.7386 65.4583 99.803 65.6705 101ZM88.9517 101H86.1335C85.9669 100.189 85.6752 99.4773 85.2585 98.8636C84.8494 98.25 84.3494 97.7348 83.7585 97.3182C83.1752 96.8939 82.5275 96.5758 81.8153 96.3636C81.1032 96.1515 80.3608 96.0455 79.5881 96.0455C78.179 96.0455 76.9025 96.4015 75.7585 97.1136C74.6222 97.8258 73.7169 98.875 73.0426 100.261C72.3759 101.648 72.0426 103.348 72.0426 105.364C72.0426 107.379 72.3759 109.08 73.0426 110.466C73.7169 111.852 74.6222 112.902 75.7585 113.614C76.9025 114.326 78.179 114.682 79.5881 114.682C80.3608 114.682 81.1032 114.576 81.8153 114.364C82.5275 114.152 83.1752 113.837 83.7585 113.42C84.3494 112.996 84.8494 112.477 85.2585 111.864C85.6752 111.242 85.9669 110.53 86.1335 109.727H88.9517C88.7396 110.917 88.3532 111.981 87.7926 112.92C87.232 113.86 86.535 114.659 85.7017 115.318C84.8684 115.97 83.9328 116.466 82.8949 116.807C81.8646 117.148 80.7623 117.318 79.5881 117.318C77.6032 117.318 75.8381 116.833 74.2926 115.864C72.7472 114.894 71.5313 113.515 70.6449 111.727C69.7585 109.939 69.3153 107.818 69.3153 105.364C69.3153 102.909 69.7585 100.788 70.6449 99C71.5313 97.2121 72.7472 95.8333 74.2926 94.8636C75.8381 93.8939 77.6032 93.4091 79.5881 93.4091C80.7623 93.4091 81.8646 93.5795 82.8949 93.9205C83.9328 94.2614 84.8684 94.7614 85.7017 95.4205C86.535 96.072 87.232 96.8674 87.7926 97.8068C88.3532 98.7386 88.7396 99.803 88.9517 101ZM93.5057 117V93.7273H107.551V96.2273H96.3239V104.091H106.824V106.591H96.3239V114.5H107.733V117H93.5057ZM125.358 99.5455C125.222 98.3939 124.669 97.5 123.699 96.8636C122.729 96.2273 121.54 95.9091 120.131 95.9091C119.1 95.9091 118.199 96.0758 117.426 96.4091C116.661 96.7424 116.063 97.2008 115.631 97.7841C115.206 98.3674 114.994 99.0303 114.994 99.7727C114.994 100.394 115.142 100.928 115.438 101.375C115.741 101.814 116.127 102.182 116.597 102.477C117.066 102.765 117.559 103.004 118.074 103.193C118.589 103.375 119.062 103.523 119.494 103.636L121.858 104.273C122.464 104.432 123.138 104.652 123.881 104.932C124.631 105.212 125.347 105.595 126.028 106.08C126.718 106.557 127.286 107.17 127.733 107.92C128.18 108.67 128.403 109.591 128.403 110.682C128.403 111.939 128.074 113.076 127.415 114.091C126.763 115.106 125.809 115.913 124.551 116.511C123.301 117.11 121.782 117.409 119.994 117.409C118.328 117.409 116.884 117.14 115.665 116.602C114.453 116.064 113.498 115.314 112.801 114.352C112.112 113.39 111.722 112.273 111.631 111H114.54C114.616 111.879 114.911 112.606 115.426 113.182C115.949 113.75 116.608 114.174 117.403 114.455C118.206 114.727 119.07 114.864 119.994 114.864C121.07 114.864 122.036 114.689 122.892 114.341C123.748 113.985 124.426 113.492 124.926 112.864C125.426 112.227 125.676 111.485 125.676 110.636C125.676 109.864 125.46 109.235 125.028 108.75C124.597 108.265 124.028 107.871 123.324 107.568C122.619 107.265 121.858 107 121.04 106.773L118.176 105.955C116.358 105.432 114.919 104.686 113.858 103.716C112.797 102.746 112.267 101.477 112.267 99.9091C112.267 98.6061 112.619 97.4697 113.324 96.5C114.036 95.5227 114.991 94.7652 116.188 94.2273C117.392 93.6818 118.737 93.4091 120.222 93.4091C121.722 93.4091 123.055 93.678 124.222 94.2159C125.388 94.7462 126.313 95.4735 126.994 96.3977C127.684 97.322 128.047 98.3712 128.085 99.5455H125.358ZM145.764 99.5455C145.628 98.3939 145.075 97.5 144.105 96.8636C143.135 96.2273 141.946 95.9091 140.537 95.9091C139.507 95.9091 138.605 96.0758 137.832 96.4091C137.067 96.7424 136.469 97.2008 136.037 97.7841C135.613 98.3674 135.401 99.0303 135.401 99.7727C135.401 100.394 135.548 100.928 135.844 101.375C136.147 101.814 136.533 102.182 137.003 102.477C137.473 102.765 137.965 103.004 138.48 103.193C138.995 103.375 139.469 103.523 139.901 103.636L142.264 104.273C142.87 104.432 143.545 104.652 144.287 104.932C145.037 105.212 145.753 105.595 146.435 106.08C147.124 106.557 147.692 107.17 148.139 107.92C148.586 108.67 148.81 109.591 148.81 110.682C148.81 111.939 148.48 113.076 147.821 114.091C147.17 115.106 146.215 115.913 144.957 116.511C143.707 117.11 142.188 117.409 140.401 117.409C138.734 117.409 137.291 117.14 136.071 116.602C134.859 116.064 133.904 115.314 133.207 114.352C132.518 113.39 132.128 112.273 132.037 111H134.946C135.022 111.879 135.317 112.606 135.832 113.182C136.355 113.75 137.014 114.174 137.81 114.455C138.613 114.727 139.476 114.864 140.401 114.864C141.476 114.864 142.442 114.689 143.298 114.341C144.154 113.985 144.832 113.492 145.332 112.864C145.832 112.227 146.082 111.485 146.082 110.636C146.082 109.864 145.866 109.235 145.435 108.75C145.003 108.265 144.435 107.871 143.73 107.568C143.026 107.265 142.264 107 141.446 106.773L138.582 105.955C136.764 105.432 135.325 104.686 134.264 103.716C133.204 102.746 132.673 101.477 132.673 99.9091C132.673 98.6061 133.026 97.4697 133.73 96.5C134.442 95.5227 135.397 94.7652 136.594 94.2273C137.798 93.6818 139.143 93.4091 140.628 93.4091C142.128 93.4091 143.461 93.678 144.628 94.2159C145.795 94.7462 146.719 95.4735 147.401 96.3977C148.09 97.322 148.454 98.3712 148.491 99.5455H145.764ZM156.625 93.7273L156.398 110.455H153.761L153.534 93.7273H156.625ZM155.08 117.182C154.519 117.182 154.038 116.981 153.636 116.58C153.235 116.178 153.034 115.697 153.034 115.136C153.034 114.576 153.235 114.095 153.636 113.693C154.038 113.292 154.519 113.091 155.08 113.091C155.64 113.091 156.121 113.292 156.523 113.693C156.924 114.095 157.125 114.576 157.125 115.136C157.125 115.508 157.03 115.848 156.841 116.159C156.659 116.47 156.413 116.72 156.102 116.909C155.799 117.091 155.458 117.182 155.08 117.182Z" fill="white"/>
<g clip-path="url(#clip0_54_1903)">
<path d="M116.991 48.4992C116.94 48.1458 116.695 47.8528 116.358 47.7411L111.227 46.051L109.696 40.8234C109.596 40.4828 109.311 40.2264 108.963 40.166C108.615 40.1056 108.262 40.2503 108.055 40.5377L104.88 44.9469L99.4841 44.8041C99.1198 44.7894 98.8026 44.989 98.6394 45.304C98.4745 45.6207 98.5017 46.0016 98.7083 46.2909L101.878 50.7056L100.077 55.8453C99.9589 56.1804 100.04 56.5576 100.287 56.8121C100.533 57.0667 100.901 57.16 101.239 57.0502L106.373 55.3693L110.654 58.6908C110.819 58.819 111.019 58.8849 111.22 58.8849C111.359 58.8849 111.501 58.8538 111.629 58.7878C111.947 58.6304 112.148 58.3045 112.148 57.9474L112.153 52.4945L116.603 49.4074C116.893 49.2041 117.047 48.8525 116.996 48.501L116.991 48.4992ZM110.694 51.2274C110.442 51.4032 110.292 51.6907 110.292 51.9983L110.288 56.0431L107.111 53.5803C106.946 53.4522 106.747 53.3862 106.545 53.3862C106.449 53.3862 106.352 53.4009 106.259 53.432L102.449 54.679L103.787 50.8667C103.888 50.5756 103.843 50.2533 103.664 50.0024L101.313 46.7267L105.317 46.8329C105.623 46.8311 105.911 46.6956 106.091 46.4484L108.449 43.1763L109.585 47.0563C109.672 47.3511 109.897 47.5855 110.187 47.6825L113.995 48.9368L110.692 51.2274H110.694Z" fill="white"/>
<path d="M76.2957 14.5495L68.3517 10.0287L67.5343 0.853247C67.5034 0.498022 67.2733 0.190405 66.9434 0.0622314C66.6153 -0.0659425 66.2402 0.00363761 65.981 0.245337L59.2694 6.48008L50.3792 4.4293C50.033 4.3469 49.676 4.47507 49.4512 4.75156C49.2265 5.02805 49.1812 5.40891 49.328 5.73301L53.1251 14.1101L48.4471 22.0184C48.2677 22.3242 48.275 22.7087 48.4653 23.009C48.6574 23.3075 48.9999 23.4759 49.3516 23.4302L58.4103 22.37L64.4096 29.3078C64.5872 29.5147 64.8446 29.6283 65.1092 29.6283C65.1871 29.6283 65.2687 29.6173 65.3484 29.5971C65.6892 29.5056 65.9502 29.2254 66.0208 28.8757L67.8224 19.8449L76.2069 16.225C76.5314 16.084 76.7489 15.7709 76.7688 15.4138C76.7887 15.0586 76.6057 14.7217 76.2975 14.5459L76.2957 14.5495ZM66.6425 18.3178C66.3616 18.4405 66.1586 18.6914 66.097 18.9953L64.5709 26.6455L59.4887 20.766C59.3111 20.5609 59.0555 20.4455 58.7891 20.4455C58.7547 20.4455 58.7184 20.4474 58.6822 20.4529L51.0082 21.3501L54.972 14.6502C55.1279 14.3866 55.146 14.0588 55.0192 13.7787L51.802 6.68149L59.3328 8.41916C59.6283 8.48874 59.9418 8.40269 60.1666 8.19578L65.8541 2.91135L66.5465 10.686C66.5736 10.9918 66.7495 11.2665 67.0159 11.4184L73.7456 15.249L66.6407 18.316L66.6425 18.3178Z" fill="#82BEFF"/>
<path d="M112.3 23.357L106.839 15.9815L109.759 7.25283C109.872 6.91591 109.785 6.54055 109.536 6.28969C109.286 6.03701 108.916 5.95095 108.581 6.0663L99.9483 9.03444L92.6349 3.53395C92.3522 3.31972 91.9734 3.28676 91.658 3.44973C91.3427 3.61269 91.1469 3.94045 91.1523 4.2975L91.2792 13.5077L83.8408 18.8361C83.5527 19.043 83.4058 19.3964 83.462 19.7479C83.5182 20.0995 83.7665 20.3906 84.1036 20.4968L92.8144 23.2215L95.5313 32.0142C95.6364 32.3548 95.9246 32.6056 96.2726 32.6605C96.3215 32.6679 96.3686 32.6715 96.4158 32.6715C96.7148 32.6715 96.9976 32.5269 97.1734 32.2742L102.431 24.7486L111.548 24.8566H111.559C111.907 24.8566 112.228 24.6588 112.387 24.3439C112.547 24.0253 112.514 23.6426 112.302 23.357H112.3ZM101.962 22.8662C101.659 22.9102 101.369 23.0109 101.193 23.2636L96.7384 29.6411L94.4365 22.1924C94.3459 21.8976 94.1175 21.6669 93.8257 21.5772L86.4454 19.2682L92.7473 14.7547C92.9974 14.577 93.1424 14.2859 93.1388 13.9765L93.0319 6.1725L99.2287 10.8344C99.4752 11.0193 99.7942 11.0706 100.081 10.9699L107.394 8.45583L104.922 15.8515C104.824 16.1444 104.875 16.4649 105.058 16.7139L109.685 22.9633L101.962 22.8699V22.8662Z" fill="#CECAFF"/>
<path d="M55.8689 37.3883C54.4697 35.7843 52.5357 34.8267 50.4242 34.6912C48.3091 34.5539 46.2737 35.2588 44.6859 36.6724C43.0982 38.086 42.1503 40.0397 42.0162 42.1729C41.7389 46.5784 45.0611 50.3888 49.4219 50.669C49.5941 50.68 49.7645 50.6854 49.9349 50.6854C51.8615 50.6854 53.7012 49.986 55.1602 48.6859C56.7479 47.2724 57.6977 45.3186 57.8318 43.1854C57.9659 41.0523 57.2699 38.9923 55.8707 37.3865L55.8689 37.3883ZM55.9776 43.0664C55.8761 44.6997 55.1493 46.1975 53.9332 47.2779C52.717 48.36 51.151 48.8983 49.5397 48.7958C46.2012 48.5816 43.6565 45.6647 43.8685 42.2919C43.97 40.6586 44.6968 39.1608 45.913 38.0805C47.0295 37.0844 48.4378 36.5497 49.9149 36.5497C50.0454 36.5497 50.1759 36.5552 50.3082 36.5625C51.9249 36.6651 53.4057 37.3993 54.4769 38.628C55.5481 39.8566 56.0809 41.4331 55.9794 43.0664H55.9776Z" fill="#007AFF"/>
<path d="M85.3345 31.6626C84.354 30.5401 83.0001 29.8682 81.5211 29.7729C78.4834 29.5898 75.8263 31.9281 75.6324 35.0134C75.4385 38.0987 77.7657 40.7684 80.8197 40.9625C80.9375 40.9698 81.0571 40.9735 81.1749 40.9735C84.0767 40.9735 86.5235 38.6883 86.7084 35.722C86.8026 34.2279 86.3151 32.785 85.3345 31.6608V31.6626ZM84.856 35.603C84.7274 37.6556 82.9711 39.2248 80.9375 39.0912C78.9057 38.9612 77.3579 37.185 77.4865 35.1324C77.6098 33.1604 79.2392 31.637 81.1695 31.637C81.2474 31.637 81.3272 31.637 81.4051 31.6443C82.3893 31.7065 83.2901 32.1533 83.9426 32.9022C84.5951 33.6511 84.9195 34.6088 84.856 35.6048V35.603Z" fill="#007AFF"/>
<path d="M64.3585 35.9381C63.9707 35.5994 63.3852 35.6397 63.0499 36.0315C62.7128 36.4215 62.7545 37.0148 63.1405 37.3535C75.9366 48.598 77.392 62.3456 77.4065 62.4829C77.4536 62.9682 77.856 63.3307 78.329 63.3307C78.358 63.3307 78.3889 63.3289 78.4197 63.3252C78.929 63.2758 79.3023 62.818 79.2552 62.3035C79.199 61.7139 77.74 47.6972 64.3585 35.9381Z" fill="#007AFF"/>
<path d="M112.202 30.3314C112.041 29.8407 111.517 29.5734 111.03 29.7363C90.924 36.4746 86.7245 56.3599 86.6846 56.5595C86.5831 57.0667 86.9075 57.561 87.4096 57.6654C87.4712 57.6782 87.5328 57.6837 87.5945 57.6837C88.0276 57.6837 88.4137 57.3779 88.5025 56.9312C88.5406 56.7426 92.5171 37.9157 111.613 31.5161C112.099 31.3513 112.364 30.8222 112.202 30.3314Z" fill="white"/>
<path d="M67.2044 66.7108C66.9959 66.3208 61.999 57.1674 52.7771 57.1527C52.2642 57.1527 51.8491 57.5702 51.8491 58.0884C51.8491 58.6066 52.2624 59.0259 52.7753 59.0277C60.8788 59.0405 65.526 67.5165 65.5731 67.6025C65.7417 67.9157 66.0607 68.0933 66.3906 68.0933C66.5392 68.0933 66.6914 68.0566 66.831 67.9797C67.2805 67.7325 67.4491 67.1667 67.2062 66.7108H67.2044Z" fill="white"/>
<path d="M106.838 63.3948C93.4508 61.6131 88.4067 73.5846 88.3577 73.7054C88.1638 74.1852 88.3885 74.7327 88.8634 74.9304C88.9794 74.978 89.099 75 89.2168 75C89.5811 75 89.9273 74.7821 90.0759 74.4195C90.1194 74.3133 94.6053 63.6731 106.598 65.2533C107.1 65.3192 107.572 64.9603 107.639 64.4458C107.704 63.9313 107.347 63.4607 106.839 63.3929L106.838 63.3948Z" fill="#007AFF"/>
</g>
<defs>
<clipPath id="clip0_54_1903">
<rect width="75" height="75" fill="white" transform="translate(42)"/>
</clipPath>
</defs>
</svg>
