<svg width="19" height="19" viewBox="0 0 19 19" fill="none" xmlns="http://www.w3.org/2000/svg">
<g clip-path="url(#clip0_54_1924)">
<path fill-rule="evenodd" clip-rule="evenodd" d="M9.5 0C4.26016 0 0 4.26016 0 9.5C0 14.7398 4.26016 19 9.5 19C14.7398 19 19 14.7398 19 9.5C19 4.26016 14.7398 0 9.5 0Z" fill="#4BAE4F"/>
<path fill-rule="evenodd" clip-rule="evenodd" d="M14.0942 6.29747C14.3243 6.52755 14.3243 6.90607 14.0942 7.13615L8.52783 12.7026C8.41279 12.8176 8.26064 12.877 8.1085 12.877C7.95635 12.877 7.8042 12.8176 7.68916 12.7026L4.90596 9.91935C4.67588 9.68927 4.67588 9.31075 4.90596 9.08068C5.13604 8.8506 5.51455 8.8506 5.74463 9.08068L8.1085 11.4445L13.2556 6.29747C13.4856 6.06368 13.8642 6.06368 14.0942 6.29747Z" fill="white"/>
</g>
<defs>
<clipPath id="clip0_54_1924">
<rect width="19" height="19" fill="white"/>
</clipPath>
</defs>
</svg>
